<svg xmlns="http://www.w3.org/2000/svg" version="1.1" xmlns:xlink="http://www.w3.org/1999/xlink" xmlns:svgjs="http://svgjs.dev/svgjs" viewBox="0 0 800 800"><defs><linearGradient x1="50%" y1="0%" x2="50%" y2="100%" id="ccchaos-grad"><stop stop-color="hsl(206, 75%, 49%)" stop-opacity="1" offset="0%"></stop><stop stop-color="hsl(331, 90%, 56%)" stop-opacity="1" offset="100%"></stop></linearGradient></defs><g stroke-width="2" stroke="url(#ccchaos-grad)" fill="none" stroke-linecap="round"><path d="M395.43 10.68C402.09 8.51 408.63 6.58 415.05 4.97 421.46 3.6 427.74 2.71 433.89 2.35 440.03 2.38 446.04 3 451.9 4.19 457.75 5.81 463.47 7.97 469.04 10.63 474.59 13.58 480.01 16.9 485.28 20.52 490.55 24.23 495.67 28.07 500.66 31.98 508.08 37.61 522.32 47.81 529.19 52.15 536.01 55.7 549.4 61.18 556.04 63.3 562.82 65.04 576.66 68.64 583.83 70.83 588.81 72.47 593.89 74.43 599.1 76.72 604.51 79.26 610.08 82.19 615.81 85.52 621.78 89.16 627.92 93.21 634.25 97.66 640.81 102.4 647.56 107.52 654.49 112.98 661.63 118.68 668.92 124.67 676.36 130.89 683.94 137.28 691.61 143.85 699.34 150.55 707.13 157.32 714.89 164.17 722.59 171.06 730.23 177.93 737.7 184.8 744.96 191.64 752 198.4 758.73 205.1 765.06 211.74 771.04 218.25 776.53 224.69 781.47 231.05 785.93 237.28 789.77 243.43 792.93 249.51 795.54 255.46 797.43 261.36 798.59 267.22 799.12 275.82 795.9 292.83 792.36 301.31 789.47 306.9 786.12 312.55 782.38 318.25 778.55 323.91 774.51 329.64 770.35 335.47 766.37 341.26 762.47 347.16 758.74 353.18 755.46 359.17 752.53 365.29 750.03 371.55 748.21 377.79 746.94 384.17 746.27 390.7 746.4 397.23 747.17 403.91 748.59 410.75 750.79 417.59 753.55 424.51 756.79 431.51 760.64 438.52 764.81 445.6 769.21 452.75 773.93 459.91 778.68 467.14 783.36 474.43 788.06 481.72 792.48 489.06 796.52 496.44 800.31 503.8 803.55 511.19 806.18 518.58 808.34 525.93 809.77 533.27 810.45 540.55 810.54 547.76 809.83 554.89 808.33 561.9 806.2 568.8 803.31 575.53 799.7 582.06 795.52 588.41 790.69 594.51 785.27 600.32 779.42 605.89 773.09 611.12 766.35 615.97 759.35 620.54 752.06 624.68 744.55 628.38 736.95 631.77 729.26 634.71 721.52 637.18 713.85 639.39 706.23 641.15 698.71 642.5 691.38 643.68 684.21 644.53 677.24 645.1 670.53 645.66 664.04 646.09 657.79 646.45 648.99 647.4 633 650.99 625.75 654.19 621.26 657.19 616.93 660.83 612.74 665.16 608.78 670.3 604.91 676.19 601.12 682.81 597.49 690.17 593.9 698.18 590.31 706.75 586.84 715.79 583.34 725.14 579.77 734.65 576.28 744.17 572.7 753.48 569.01 762.39 565.36 770.76 561.57 778.34 557.64 784.95 551.67 792.68 538.89 799.59 532.05 798.55 527.41 796.25 522.59 792.75 517.59 788.21 512.57 783.08 507.36 777.38 501.99 771.39 496.58 765.62 491.01 760.12 485.28 755.21 479.52 751.34 473.6 748.53 467.54 746.98 461.45 747 455.23 748.47 448.86 751.42 442.48 755.89 435.97 761.63 429.34 768.42 422.69 776.12 415.93 784.31 409.06 792.62 402.18 800.82 395.27 808.32 388.35 814.81 381.43 820.2 374.49 824.05 367.54 826.22 360.61 826.78 353.66 825.54 346.72 822.54 339.8 818.05 332.87 812.09 325.96 804.89 319.07 796.81 312.19 788.03 305.34 778.86 298.51 769.67 291.7 760.67 284.94 752.12 278.2 744.34 271.5 737.43 264.85 731.54 258.23 726.87 251.67 723.38 245.18 721.06 238.73 719.99 232.35 719.97 226.06 720.86 219.81 722.69 213.65 725.11 207.6 727.92 201.6 731.14 195.71 734.36 189.94 737.39 181.44 741.44 165.2 745.46 157.49 744.82 152.47 743.27 147.6 740.72 142.88 737.2 138.23 732.86 133.73 727.62 129.39 721.58 125.1 714.87 120.97 707.5 117 699.61 113.06 691.29 109.28 682.63 105.63 673.74 102.01 664.69 98.53 655.57 95.17 646.49 91.82 637.47 88.59 628.61 85.47 619.95 82.33 611.51 79.3 603.35 76.36 595.49 73.38 587.92 70.5 580.67 67.7 573.72 64.85 567.09 62.08 560.74 59.39 554.64 56.64 548.83 53.98 543.22 51.39 537.79 47.46 530.03 39.98 515.23 36.46 508.01 32.98 500.93 26.6 486.52 23.73 479.09 21 471.56 16.32 455.78 14.4 447.47 13.19 441.88 12.15 436.1 11.3 430.16 10.46 424.2 9.8 418.07 9.32 411.76 8.87 405.45 8.61 398.96 8.53 392.31 8.48 385.66 8.62 378.92 8.94 372.11 9.3 365.3 9.84 358.43 10.57 351.5 11.32 344.59 12.26 337.63 13.38 330.64 14.54 323.67 15.87 316.68 17.38 309.68 18.92 302.72 20.63 295.77 22.51 288.84 24.41 281.96 26.47 275.13 28.68 268.36 30.91 261.67 33.27 255.06 35.78 248.55 38.27 242.15 40.89 235.87 43.63 229.74 46.33 223.74 49.14 217.91 52.05 212.28 56.39 204.15 65.38 189.25 70.02 182.53 74.62 176.26 84.07 165.13 88.93 160.2 93.78 155.53 103.82 146.91 109.04 142.78 114.33 138.47 125.47 129.34 131.34 124.32 135.31 120.65 139.42 116.79 143.66 112.76 147.94 108.41 152.36 103.87 156.91 99.16 161.52 94.17 166.27 89.06 171.15 83.84 176.1 78.47 181.18 73.08 186.39 67.74 191.67 62.4 197.07 57.22 202.6 52.26 208.18 47.47 213.89 43.02 219.7 38.96 225.57 35.22 231.54 31.95 237.6 29.17 243.72 26.78 249.92 24.91 256.19 23.54 262.51 22.52 268.9 21.94 275.35 21.77 281.83 21.78 288.36 22.08 294.94 22.59 301.54 23.06 308.18 23.59 314.85 24.11 321.54 24.37 328.25 24.47 334.96 24.39 341.7 23.89 348.44 23.13 355.17 22.11 361.91 20.67 368.64 19 375.36 17.15 382.08 15.02 388.77 12.83 395.43 10.69" stroke-dasharray="10 10" transform="rotate(0, 400, 400)" opacity="0.42"></path><path d="M389.01 25.72C395.31 23.51 401.51 21.54 407.59 19.88 413.68 18.44 419.65 17.45 425.5 16.96 434.22 17.09 451.05 20.75 459.17 24.21 464.53 26.99 469.78 30.16 474.92 33.66 480.06 37.29 485.09 41.1 490.02 45.01 494.96 48.85 499.81 52.65 504.58 56.38 511.73 61.49 525.81 70.2 532.78 73.74 539.86 76.53 554.19 80.93 561.53 82.78 569.13 84.46 585.03 88.46 593.39 91.05 599.19 93.02 605.13 95.33 611.22 97.98 617.49 100.88 623.92 104.17 630.51 107.83 637.26 111.77 644.16 116.09 651.19 120.76 658.35 125.7 665.61 130.96 672.94 136.52 680.35 142.28 687.77 148.28 695.18 154.49 702.57 160.84 709.88 167.34 717.05 173.96 724.09 180.63 730.92 187.38 737.47 194.17 743.77 200.95 749.71 207.73 755.24 214.5 760.4 221.22 765.06 227.9 769.18 234.53 772.84 241.08 775.9 247.57 778.33 254.01 780.25 260.35 781.51 266.63 782.11 272.87 782.22 279.01 781.68 285.11 780.53 291.19 778.96 297.17 776.85 303.15 774.23 309.12 771.37 315.02 768.12 320.93 764.56 326.87 760.96 332.76 757.21 338.68 753.38 344.66 749.76 350.6 746.23 356.61 742.88 362.69 739.96 368.75 737.38 374.9 735.19 381.14 733.62 387.37 732.55 393.7 732.03 400.14 732.23 406.57 733.01 413.12 734.36 419.78 736.42 426.45 738.98 433.15 741.98 439.89 745.53 446.63 749.38 453.4 753.44 460.2 757.82 467 762.23 473.81 766.6 480.62 771.02 487.43 775.2 494.22 779.08 500.99 782.75 507.73 785.97 514.42 788.65 521.05 790.94 527.61 792.59 534.08 793.58 540.44 794.05 546.69 793.8 552.8 792.84 558.71 791.31 564.5 789.08 570.06 786.16 575.37 782.71 580.51 778.64 585.35 773.98 589.87 768.9 594.19 763.32 598.16 757.31 601.77 751 605.15 744.36 608.16 737.45 610.79 730.38 613.23 723.15 615.3 715.81 617.02 708.46 618.63 701.09 619.94 693.74 621 686.49 622.07 679.34 622.98 672.3 623.8 665.46 624.8 658.78 625.84 652.27 627.01 646.01 628.55 639.94 630.36 634.07 632.52 628.45 635.24 623.03 638.44 617.79 642.19 612.8 646.62 607.97 651.66 603.29 657.33 598.83 663.69 594.48 670.66 590.23 678.2 586.17 686.27 582.16 694.76 578.2 703.57 574.37 712.6 570.55 721.69 566.72 730.68 562.98 739.45 559.2 747.81 555.36 755.57 551.58 762.65 547.72 768.84 543.75 773.98 537.79 779.54 525.27 782.64 518.67 780.2 514.21 777.26 509.61 773.34 504.85 768.63 500.08 763.54 495.15 758.1 490.07 752.54 484.97 747.33 479.72 742.51 474.32 738.34 466.11 734.15 448.96 733.66 440.02 737.76 434.01 742.31 427.87 747.97 421.6 754.54 415.33 761.92 408.94 769.7 402.43 777.59 395.92 785.36 389.37 792.51 382.81 798.74 376.24 804 369.66 807.88 363.06 810.23 356.47 811.15 349.87 810.41 343.28 808.06 336.69 804.3 330.12 799.14 323.55 792.75 317 785.46 310.47 777.4 303.97 768.83 297.49 760.08 291.04 751.33 284.63 742.83 278.24 734.87 271.91 727.56 265.63 721.07 259.38 715.59 253.2 711.13 247.09 707.7 241.02 705.44 235.03 704.18 229.13 703.84 223.27 704.48 217.52 705.82 211.86 707.69 206.26 710.14 200.77 712.81 195.41 715.53 187.51 719.61 172.45 725.39 165.32 726.38 158.41 725.66 145.42 718.87 139.33 712.83 135.36 707.86 131.54 702.17 127.85 695.84 124.2 688.99 120.68 681.65 117.29 673.9 113.91 665.85 110.65 657.54 107.51 649.06 104.36 640.48 101.32 631.86 98.38 623.28 95.42 614.75 92.54 606.35 89.76 598.11 86.93 590.04 84.17 582.18 81.5 574.55 78.77 567.14 76.11 559.96 73.53 553.03 70.88 546.32 68.31 539.83 65.8 533.53 63.24 527.45 60.75 521.53 58.35 515.75 55.89 510.14 53.52 504.63 51.24 499.19 47.82 491.23 41.48 475.54 38.61 467.68 35.85 459.85 31.06 443.82 29.07 435.57 27.81 430.04 26.72 424.39 25.8 418.62 24.91 412.84 24.2 406.94 23.68 400.9 23.18 394.86 22.88 388.69 22.76 382.39 22.69 376.09 22.81 369.74 23.12 363.34 23.47 356.95 24.02 350.53 24.75 344.08 25.52 337.65 26.48 331.2 27.63 324.75 28.8 318.33 30.16 311.92 31.7 305.54 33.26 299.2 35 292.9 36.89 286.66 38.81 280.48 40.88 274.38 43.1 268.38 45.33 262.45 47.69 256.63 50.18 250.95 52.66 245.36 55.25 239.93 57.96 234.67 62.02 227.02 70.52 212.87 74.93 206.4 79.33 200.3 88.34 189.27 92.95 184.3 97.51 179.55 106.88 170.69 111.68 166.44 116.49 162.06 126.48 152.95 131.69 148.05 136.98 142.65 148.11 130.64 153.97 124 157.94 119.24 162.04 114.33 166.26 109.29 170.52 104.06 174.91 98.76 179.43 93.43 183.99 88.03 188.68 82.69 193.5 77.47 198.37 72.34 203.36 67.43 208.47 62.8 213.63 58.41 218.9 54.39 224.29 50.8 229.72 47.54 235.25 44.75 240.89 42.46 246.56 40.54 252.32 39.1 258.17 38.13 264.05 37.45 270.01 37.17 276.03 37.24 282.08 37.45 288.19 37.87 294.35 38.46 300.54 38.97 306.76 39.49 313.02 39.96 319.3 40.15 325.61 40.17 331.93 39.98 338.27 39.39 344.62 38.54 350.97 37.43 357.32 35.92 363.68 34.19 370.02 32.28 376.37 30.11 382.7 27.9 389 25.72" stroke-dasharray="4 4" transform="rotate(4.04, 400, 400)" opacity="0.60"></path><path d="M383.6 40.76C389.57 38.53 395.45 36.52 401.25 34.81 409.89 32.77 426.7 31.53 434.87 32.52 442.95 34.65 458.65 41.88 466.29 46.72 471.36 50.23 476.37 53.96 481.3 57.83 486.25 61.68 491.15 65.55 496 69.39 500.89 73.02 505.74 76.52 510.56 79.85 520.39 85.54 530.22 90.37 540.14 94.39 550.49 97.25 561.09 99.76 572.04 102.29 583.55 104.61 595.53 107.64 607.98 111.67 621.02 116.4 634.5 122.5 648.3 129.98 662.43 138.47 676.6 148.24 690.56 159.1 704.23 170.69 717.18 183.04 729.03 195.88 739.8 208.99 748.91 222.29 756.01 235.64 761.41 248.88 764.5 262.02 765.19 275.01 764.9 281.42 764.04 287.79 762.64 294.12 760.92 300.4 758.72 306.65 756.11 312.87 753.31 319.04 750.21 325.19 746.86 331.34 743.51 337.45 740.06 343.57 736.57 349.69 733.29 355.79 730.13 361.91 727.14 368.07 724.57 374.2 722.3 380.38 720.4 386.6 719.07 392.81 718.19 399.08 717.8 405.4 718.06 411.72 718.84 418.1 720.13 424.54 722.06 430.99 724.43 437.41 727.19 443.82 730.46 450.23 734 456.61 737.74 462.95 741.78 469.29 745.87 475.58 749.92 481.82 754.05 488.04 758 494.18 761.69 500.24 765.23 506.25 768.38 512.16 771.07 517.94 774.35 526.44 777.35 542.44 776.93 549.86 775.94 554.61 774.3 559.11 772.02 563.33 766.02 571.38 757.74 578.25 747.53 583.86 736.06 588.97 723.32 592.97 709.74 596 695.86 599.11 681.77 601.84 667.8 604.65 654.29 608.63 641.25 613.58 628.8 620.02 617.17 628.68 606.17 639.38 595.78 652.22 586.18 667.12 577.02 683.5 568.19 700.66 559.91 717.77 551.74 733.72 543.54 747.31 535.65 757.87 527.53 764.34 519.1 766.19 512.8 764.77 499.66 755.79 492.81 749 488.2 744.09 483.46 739 478.59 733.96 471.21 727.3 455.78 718.65 447.73 717.61 442.31 718.61 436.76 720.8 431.09 724.17 425.41 728.75 419.6 734.3 413.68 740.65 407.76 747.7 401.72 755.09 395.57 762.55 389.43 769.91 383.25 776.7 377.04 782.67 370.84 787.79 364.62 791.67 358.39 794.18 352.17 795.41 345.95 795.13 339.72 793.36 333.51 790.3 327.3 785.9 321.11 780.31 314.94 773.82 308.79 766.5 302.67 758.58 296.58 750.37 290.52 742 284.5 733.69 278.52 725.73 272.58 718.21 266.7 711.3 260.86 705.21 255.09 699.95 249.39 695.59 238.12 689.97 227.18 687.9 216.66 688.74 206.34 692.29 196.47 696.82 187.11 701.16 177.97 705.13 169.35 707.05 161.28 706.38 153.38 703.42 146.01 697.42 139.16 688.62 132.38 677.65 126.06 664.59 120.18 650.04 114.23 634.5 108.62 618.41 103.35 602.24 97.88 586.17 92.68 570.57 87.74 555.6 82.55 541.22 77.6 527.55 72.95 514.54 70.54 508.25 68.21 502.09 65.96 496.05 63.67 490.13 61.48 484.29 59.39 478.53 57.26 472.85 55.26 467.22 53.37 461.61 50.59 453.28 45.72 436.64 43.66 428.26 41.8 419.85 38.96 402.75 38.01 394.02 37.48 388.18 37.14 382.26 36.99 376.27 36.9 370.28 37 364.28 37.29 358.29 37.64 352.31 38.18 346.33 38.91 340.38 39.69 334.43 40.66 328.52 41.81 322.64 43.01 316.79 44.38 310.99 45.93 305.26 48.38 296.74 54.12 280.24 57.38 272.31 60.78 264.6 68.19 250 72.16 243.17 77.41 234.37 83.02 226.29 88.92 218.95 94.57 211.77 100.47 205.23 106.58 199.23 112.42 193.06 118.48 187.14 124.78 181.28 130.85 174.77 137.22 167.95 143.91 160.67 150.49 152.38 157.46 143.47 164.85 133.97 172.25 123.65 180.12 113.06 188.46 102.49 196.91 91.97 205.84 82.18 215.23 73.54 224.77 65.99 234.75 60.14 245.12 56.17 253.03 54.18 269.32 52.69 277.67 52.94 286.13 53.55 303.38 55.18 312.14 55.82 318 55.92 323.91 55.84 329.83 55.54 335.77 54.85 341.73 53.9 347.7 52.71 353.68 51.13 359.67 49.34 365.65 47.39 371.64 45.2 377.62 42.96 383.59 40.76" stroke-dasharray="2 1" transform="rotate(8.08, 400, 400)" opacity="0.37"></path><path d="M379.72 55.8C388.19 52.54 404.79 47.63 412.91 46.34 423.71 45.96 434.23 47.67 444.5 51.4 454.8 56.45 464.9 62.97 474.81 70.48 484.85 78.07 494.8 85.72 504.73 93.03 514.89 99.26 525.16 104.72 535.59 109.38 546.4 112.81 557.5 115.74 568.93 118.42 580.82 120.62 593.09 123.2 605.73 126.46 618.76 130.12 632.06 134.9 645.47 140.88 658.98 147.72 672.32 155.83 685.23 165.08 697.67 175.13 709.23 186.11 719.57 197.79 728.79 209.94 736.35 222.51 741.99 235.33 746.08 248.28 748.06 261.29 747.9 274.25 746.35 287.16 742.97 299.96 738.01 312.65 732.57 325.22 726.37 337.71 719.9 350.11 714.32 362.44 709.43 374.76 705.67 387.06 704.56 393.21 703.86 399.36 703.58 405.52 703.9 411.67 704.67 417.84 705.9 424.01 707.7 430.18 709.89 436.27 712.43 442.3 715.43 448.32 718.67 454.26 722.1 460.11 729.75 471.77 737.35 483.02 744.35 493.75 750.97 504.32 756.03 514.24 759.21 523.38 760.9 532.23 760.26 540.19 757.3 547.15 752.59 553.77 745.72 559.41 736.96 564.08 726.92 568.65 715.52 572.54 703.11 576 690.23 579.97 676.9 584.11 663.44 588.82 650.19 594.95 637.19 602.33 624.57 611.29 612.55 622.22 601.04 634.9 590.05 649.18 579.73 664.79 569.84 681.11 560.32 697.37 551.33 712.83 542.54 726.49 533.83 737.39 525.47 745.18 517.01 749.04 508.4 748.71 499.94 745.16 491.18 738.38 482.09 729.4 473.04 720.35 463.59 711.92 453.71 705.58 443.82 703.16 433.48 704.77 422.72 710.63 417.33 715.22 411.83 720.64 406.24 726.75 400.63 733.47 394.93 740.46 389.13 747.51 383.33 754.47 377.51 760.91 371.67 766.62 365.83 771.57 359.98 775.43 354.12 778.06 342.44 779.83 330.76 776.16 319.16 767.55 307.62 755.38 296.21 740.54 284.98 724.61 273.86 709.32 262.98 695.67 252.39 684.63 241.97 677.06 231.88 672.73 222.21 671.31 212.71 672.8 203.65 675.8 195.08 679.36 186.68 683.34 178.77 686.15 171.37 687.13 164.08 686.53 157.27 683.36 150.93 677.63 144.61 669.89 138.69 659.89 133.16 648.08 127.51 634.97 122.17 620.78 117.12 605.98 111.85 590.81 106.8 575.61 102 560.66 96.92 545.93 92.08 531.66 87.5 517.93 82.69 504.59 78.18 491.74 74.05 479.32 69.79 467.21 65.98 455.38 62.68 443.75 59.4 432.28 56.72 420.88 54.69 409.49 53.33 400.97 51.58 383.86 51.23 375.27 51.15 366.69 52.07 349.82 53.06 341.53 54.67 330.55 57.02 319.87 60.07 309.56 63.27 299.34 67.11 289.58 71.52 280.34 75.95 271.24 80.87 262.73 86.21 254.84 91.42 247.06 96.97 239.88 102.8 233.26 108.38 226.59 114.2 220.31 120.21 214.32 125.94 207.93 131.87 201.55 138 195 143.89 187.68 150.04 179.94 156.44 171.68 162.7 162.52 169.31 152.85 176.26 142.76 183.18 132.15 190.51 121.53 198.25 111.24 206.05 101.29 214.3 92.3 222.97 84.63 231.74 78.13 240.93 73.33 250.5 70.33 260.18 68.49 270.22 68.1 280.56 68.85 290.98 69.71 301.67 70.8 312.56 71.68 323.51 71.33 334.62 70.12 345.83 67.94 351.45 66.29 357.08 64.46 362.73 62.48 368.38 60.26 374.04 58.01 379.71 55.8" stroke-dasharray="10 8" transform="rotate(12.12, 400, 400)" opacity="0.31"></path><path d="M377.72 70.83C388.51 66.39 399.13 63 409.56 61.1 420.01 60.45 430.29 61.78 440.43 65.05 450.61 69.65 460.7 75.76 470.71 82.97 480.85 90.44 491 98.16 501.21 105.73 511.65 112.44 522.25 118.5 533.04 123.8 544.15 127.91 555.54 131.4 567.2 134.47 579.21 136.83 591.5 139.3 604.01 142.12 616.75 145.03 629.57 148.78 642.33 153.5 654.99 158.85 667.28 165.36 678.97 172.96 690.08 181.32 700.19 190.68 709.02 200.88 716.75 211.65 722.86 223.03 727.16 234.84 730.1 246.95 731.14 259.3 730.3 271.76 728.33 284.3 724.8 296.85 719.99 309.32 714.89 321.79 709.21 334.16 703.39 346.41 698.47 358.63 694.21 370.75 691 382.74 689.68 394.72 689.88 406.58 691.66 418.29 695.52 429.99 700.59 441.24 706.52 451.97 713.54 462.67 720.56 472.8 727.1 482.29 733.4 491.65 738.4 500.3 741.78 508.16 743.93 515.85 744.03 522.72 742.04 528.77 738.5 534.71 732.95 539.95 725.58 544.59 716.96 549.46 706.92 554.08 695.79 558.72 684.04 564.18 671.66 570.18 658.94 577.05 646.23 585.37 633.53 594.98 621.03 606.03 608.92 618.64 597.17 632.54 585.82 647.43 575.01 662.91 564.58 678.38 554.51 693.07 544.92 706.41 535.57 717.54 526.38 725.71 517.53 730.88 508.7 732.42 499.82 730.33 491.14 725.69 482.28 718.57 473.21 709.97 464.22 701.83 454.93 694.68 445.34 689.72 435.76 688.49 425.82 690.93 415.55 697.14 405.27 707.07 394.65 719.32 383.7 732.47 372.75 745.32 361.76 755.53 350.78 761.89 339.83 764.23 328.93 761.64 318.13 754.47 307.39 743.84 296.8 730.39 286.41 715.47 276.12 700.6 266.09 686.68 256.36 674.69 246.77 665.52 237.52 659.18 228.67 655.58 219.96 654.88 211.68 656.03 203.85 658.27 196.14 661.55 188.88 664.43 182.08 666.26 175.35 667.21 169.04 666.19 163.15 663.03 157.22 658.2 151.64 651.2 146.4 642.3 141 631.99 135.87 620.28 130.99 607.55 125.87 594.12 120.95 580.21 116.24 566.14 111.26 551.95 106.48 537.91 101.95 524.17 97.19 510.6 92.71 497.41 88.58 484.62 84.34 472.03 80.52 459.79 77.19 447.87 73.88 436.08 71.16 424.51 69.07 413.15 67.14 401.83 65.91 390.64 65.46 379.6 65.25 368.56 65.83 357.9 67.19 347.65 68.78 337.4 71.12 327.58 74.14 318.23 77.33 308.92 81.14 300.1 85.51 291.82 89.92 283.57 94.8 275.84 100.08 268.65 105.26 261.41 110.76 254.6 116.52 248.16 122.07 241.48 127.82 234.99 133.76 228.54 139.42 221.57 145.26 214.42 151.27 206.96 157.03 198.74 163 190.08 169.2 180.94 175.21 171.1 181.52 160.91 188.12 150.55 194.64 139.97 201.52 129.66 208.77 119.93 216.01 110.8 223.66 102.8 231.69 96.22 239.77 90.82 248.25 87.06 257.09 84.95 266.01 83.83 275.28 83.93 284.85 84.94 294.49 85.86 304.41 86.85 314.56 87.51 324.74 86.93 335.13 85.49 345.68 83.13 356.24 79.42 366.93 75.17 377.71 70.84" stroke-dasharray="4 2" transform="rotate(16.16, 400, 400)" opacity="0.86"></path><path d="M377.8 85.87C388.09 81.43 398.31 77.99 408.44 75.92 418.58 75 428.66 75.95 438.68 78.76 448.76 82.88 458.83 88.53 468.9 95.35 479.11 102.6 489.39 110.27 499.78 117.99 510.38 125.06 521.14 131.64 532.1 137.57 543.31 142.38 554.75 146.54 566.39 150.17 578.25 152.95 590.28 155.59 602.39 158.32 614.57 160.85 626.67 163.93 638.52 167.7 650.14 171.85 661.25 176.96 671.62 183.05 681.34 189.76 689.99 197.45 697.36 206.01 703.69 215.16 708.48 225.03 711.6 235.48 713.55 246.32 713.81 257.55 712.45 269.04 710.2 280.73 706.66 292.55 702.06 304.39 697.35 316.31 692.22 328.18 687.03 339.94 682.75 351.74 679.1 363.39 676.39 374.85 675.39 386.33 675.71 397.61 677.43 408.62 680.99 419.63 685.62 430.1 691.01 439.98 697.42 449.83 703.85 459.06 709.92 467.63 715.88 476.14 720.75 483.96 724.23 491.1 726.72 498.18 727.43 504.63 726.28 510.5 723.78 516.48 719.43 522.06 713.36 527.42 706.12 533.22 697.45 539.15 687.63 545.43 677.11 552.64 665.83 560.6 654.05 569.54 642.09 579.75 629.96 591.11 617.83 603.6 605.92 617.13 594.21 631.41 582.76 646.06 571.71 660.65 560.97 674.6 550.53 687.24 540.5 698.18 530.72 706.68 521.13 712.23 511.86 715.04 502.68 714.64 493.55 711.19 484.61 705.87 475.61 698.75 466.5 690.78 457.5 683.68 448.3 677.82 438.91 674.2 429.55 674.05 419.94 677.22 410.09 683.69 400.24 693.39 390.13 705.06 379.78 717.44 369.43 729.54 359.1 739.3 348.84 745.66 338.59 748.49 328.43 746.88 318.42 741.04 308.45 731.93 298.66 719.94 289.1 706.18 279.61 691.99 270.4 678.16 261.49 665.61 252.69 655.24 244.23 647.22 236.16 641.63 228.18 638.76 220.61 637.88 213.45 638.43 206.37 640.45 199.69 642.71 193.42 644.59 187.17 646.26 181.28 646.59 175.76 645.31 170.16 642.83 164.86 638.45 159.84 632.28 154.65 624.8 149.67 615.78 144.91 605.52 139.9 594.38 135.07 582.42 130.42 569.94 125.51 557.08 120.78 544.04 116.28 531.02 111.56 517.95 107.11 505.06 102.99 492.44 98.76 479.91 94.94 467.67 91.6 455.77 88.29 443.94 85.53 432.41 83.41 421.17 81.45 409.97 80.19 399.01 79.69 388.33 79.45 377.65 80 367.46 81.3 357.77 82.87 348.07 85.16 338.85 88.13 330.14 91.28 321.41 95.04 313.16 99.35 305.4 103.72 297.58 108.55 290.18 113.77 283.18 118.9 276 124.35 269.09 130.06 262.36 135.57 255.27 141.28 248.18 147.16 240.99 152.78 233.22 158.57 225.18 164.5 216.79 170.17 207.74 176.03 198.3 182.08 188.53 187.92 178.29 194 167.92 200.34 157.64 206.55 147.43 213.07 137.73 219.91 128.85 226.7 120.72 233.84 113.84 241.33 108.42 248.83 104.12 256.69 101.35 264.9 100.06 273.14 99.54 281.72 100.01 290.61 101.18 299.54 102.08 308.76 102.9 318.24 103.31 327.74 102.48 337.47 100.8 347.41 98.26 357.36 94.47 367.49 90.21 377.79 85.87" stroke-dasharray="6 1" transform="rotate(20.200000000000003, 400, 400)" opacity="0.44"></path><path d="M379.93 100.91C389.79 96.5 399.65 93.01 409.49 90.79 419.36 89.62 429.23 90.21 439.12 92.55 449.07 96.16 459.07 101.3 469.14 107.66 479.33 114.59 489.63 122.09 500.05 129.81 510.64 137.12 521.39 144.11 532.3 150.58 543.39 156.08 554.63 160.95 565.98 165.25 577.45 168.63 588.96 171.7 600.41 174.64 611.81 177.16 622.98 179.94 633.77 183.15 644.22 186.48 654.04 190.52 663.05 195.36 671.37 200.62 678.62 206.77 684.62 213.75 689.66 221.23 693.28 229.48 695.39 238.37 696.51 247.68 696.17 257.49 694.43 267.68 692.03 278.14 688.57 288.85 684.26 299.69 679.98 310.67 675.4 321.69 670.84 332.66 667.16 343.71 664.07 354.64 661.82 365.41 661.11 376.2 661.55 386.78 663.2 397.09 666.48 407.4 670.69 417.17 675.56 426.38 681.38 435.56 687.25 444.18 692.84 452.22 698.42 460.24 703.09 467.72 706.61 474.68 709.33 481.71 710.51 488.33 710.07 494.63 708.47 501.2 705.19 507.66 700.33 514.2 694.38 521.3 687.05 528.76 678.55 536.77 669.31 545.67 659.23 555.36 648.51 565.94 637.49 577.49 626.14 589.9 614.63 603.03 603.18 616.67 591.76 630.53 580.48 644.18 569.45 657.24 558.64 669.2 548.06 679.47 537.8 687.9 527.76 693.85 517.91 697.01 508.34 697.81 498.91 695.89 489.57 691.52 480.42 685.9 471.28 679.08 462.13 671.93 453.08 665.96 443.95 661.39 434.71 659.02 425.52 659.85 416.18 663.63 406.68 670.27 397.2 679.71 387.55 690.77 377.74 702.4 367.94 713.78 358.22 723.08 348.61 729.38 339.02 732.62 329.56 731.88 320.29 727.28 311.05 719.62 302.01 709.1 293.22 696.64 284.49 683.36 276.03 669.94 267.89 657.21 259.81 646.06 252.07 636.72 244.69 629.44 237.37 624.58 230.42 621.67 223.85 620.34 217.3 620.72 211.12 621.8 205.3 623.04 196.68 625.08 180.79 623.27 173.4 618.18 168.35 613.22 163.49 606.77 158.81 599.01 153.88 590.37 149.1 580.7 144.49 570.25 139.63 559.28 134.93 547.84 130.45 536.14 125.77 524.23 121.35 512.26 117.25 500.37 113.05 488.44 109.25 476.69 105.9 465.17 102.61 453.68 99.85 442.44 97.71 431.5 95.75 420.58 94.46 409.93 93.92 399.58 93.65 389.23 94.15 379.4 95.41 370.08 96.92 360.73 99.15 351.86 102.05 343.46 105.14 335 108.83 326.96 113.06 319.31 117.36 311.53 122.11 304.05 127.25 296.82 132.33 289.33 137.72 281.96 143.37 274.63 148.84 266.88 154.51 259.02 160.35 250.97 165.95 242.39 171.7 233.52 177.58 224.35 183.21 214.68 189 204.76 194.94 194.69 200.67 184.42 206.6 174.25 212.75 164.41 218.74 154.89 224.99 146.09 231.51 138.26 237.95 131.29 244.69 125.6 251.75 121.33 258.77 118.09 266.12 116.22 273.79 115.62 281.46 115.58 289.46 116.31 297.77 117.52 306.08 118.32 314.69 118.92 323.58 119.04 332.47 117.95 341.63 116.05 351.03 113.35 360.43 109.5 370.07 105.23 379.93 100.91" stroke-dasharray="6 1" transform="rotate(24.24, 400, 400)" opacity="0.54"></path><path d="M383.94 115.94C393.4 111.58 402.92 108.06 412.47 105.73 422.05 104.33 431.7 104.55 441.41 106.43 451.18 109.52 461.04 114.11 470.99 119.95 481.04 126.45 491.21 133.67 501.5 141.26 511.9 148.65 522.44 155.91 533.08 162.82 543.82 168.92 554.64 174.47 565.47 179.47 576.31 183.57 587.09 187.26 597.67 190.66 608.11 193.48 618.2 196.33 627.81 199.37 637.02 202.27 645.53 205.66 653.18 209.61 660.16 213.78 666.09 218.67 670.83 224.28 674.73 230.25 677.34 236.96 678.6 244.31 679.07 252.03 678.28 260.31 676.32 269.06 673.88 278.08 670.58 287.44 666.62 297.05 662.79 306.82 658.77 316.74 654.82 326.71 651.71 336.77 649.14 346.8 647.31 356.74 646.86 366.72 647.4 376.55 648.97 386.18 651.99 395.82 655.79 405 660.18 413.74 665.43 422.46 670.75 430.75 675.85 438.6 681.04 446.5 685.47 454.03 688.93 461.25 691.79 468.62 693.33 475.82 693.46 482.95 692.62 490.41 690.28 498.01 686.5 505.86 681.75 514.29 675.68 523.2 668.47 532.69 660.52 542.91 651.67 553.82 642.11 565.4 632.17 577.58 621.76 590.26 611.06 603.21 600.29 616.19 589.41 628.9 578.54 640.93 567.8 652.03 557.16 661.69 546.68 669.5 536.41 675.47 526.31 679.1 516.39 680.21 506.68 679.41 497.12 676.39 487.68 671.51 478.4 665.94 469.19 659.68 460.03 653.49 450.97 648.7 441.9 645.39 432.81 644.17 423.77 645.87 414.66 650.15 405.49 656.89 396.33 666.01 387.09 676.48 377.77 687.36 368.46 698.03 359.29 706.86 350.29 713.06 341.29 716.62 332.48 716.64 323.88 713.19 315.29 706.91 306.94 697.86 298.85 686.75 290.79 674.57 283.01 661.83 275.55 649.3 268.11 637.76 261 627.53 254.22 618.92 247.47 612.35 241.04 607.55 234.96 604.33 225.98 602.63 209.45 603.69 201.81 604.15 194.19 603.52 179.64 595.52 172.61 587.84 167.73 581.55 162.99 574.18 158.41 565.91 153.58 557.07 148.92 547.56 144.46 537.57 139.82 527.27 135.44 516.68 131.36 505.96 127.21 495.12 123.44 484.27 120.12 473.5 116.85 462.71 114.12 452.05 111.98 441.6 110.02 431.16 108.73 420.92 108.15 410.92 107.86 400.92 108.31 391.38 109.5 382.28 110.95 373.15 113.11 364.42 115.91 356.07 118.92 347.64 122.51 339.52 126.62 331.67 130.83 323.66 135.49 315.82 140.53 308.09 145.53 300.1 150.85 292.1 156.42 284.03 161.84 275.58 167.47 266.97 173.27 258.15 178.85 248.92 184.57 239.46 190.42 229.81 196.03 219.86 201.78 209.84 207.66 199.88 213.33 189.95 219.17 180.36 225.19 171.3 231.03 162.74 237.1 155.05 243.39 148.42 249.57 142.67 256.01 138.18 262.73 135.02 269.38 132.74 276.33 131.64 283.57 131.6 290.78 131.91 298.3 132.77 306.11 133.93 313.91 134.55 322.01 134.89 330.39 134.7 338.77 133.35 347.43 131.22 356.35 128.38 365.27 124.48 374.47 120.23 383.93 115.95" stroke-dasharray="4 1" transform="rotate(28.28, 400, 400)" opacity="0.39"></path><path d="M389.44 130.98C398.52 126.68 407.7 123.16 416.95 120.72 426.22 119.11 435.6 119 445.06 120.43 454.56 122.98 464.18 127 473.89 132.27 483.66 138.26 493.55 145.07 503.52 152.4 513.57 159.72 523.69 167.09 533.85 174.28 544.05 180.85 554.23 187 564.33 192.67 574.37 197.52 584.24 201.91 593.82 205.94 603.18 209.31 612.11 212.53 620.47 215.74 628.42 218.64 635.63 221.77 641.99 225.27 650.09 230.77 659.87 244.87 661.35 253.6 661.32 259.88 660.23 266.72 658.17 274.06 655.79 281.62 652.74 289.61 649.16 297.92 645.81 306.38 642.33 315.1 638.96 323.97 636.39 332.93 634.3 341.98 632.85 351.05 632.62 360.15 633.24 369.24 634.74 378.25 637.5 387.27 640.93 396 644.85 404.42 649.57 412.86 654.36 421.03 658.98 428.96 663.74 436.96 667.89 444.8 671.24 452.53 674.14 460.45 675.92 468.39 676.5 476.45 676.28 484.84 674.75 493.51 671.92 502.53 668.24 512.03 663.35 522 657.36 532.47 650.66 543.43 643.06 554.87 634.7 566.69 625.9 578.75 616.55 590.91 606.82 602.94 596.9 614.61 586.76 625.63 576.52 635.64 566.29 644.51 556.06 651.8 545.89 657.21 535.85 660.95 525.91 662.57 516.11 662.05 506.45 660.07 496.92 656.4 487.52 651.39 478.25 646.15 469.07 640.66 459.97 635.55 450.97 631.94 442 629.83 433.08 629.66 424.2 632.1 415.33 636.78 406.46 643.53 397.61 652.3 388.74 662.16 379.87 672.32 371 682.29 362.33 690.64 353.87 696.7 345.41 700.49 337.16 701.19 329.16 698.76 321.16 693.77 313.41 686.15 305.93 676.45 298.46 665.51 291.27 653.68 284.38 641.65 277.49 630.13 270.91 619.43 264.63 609.9 258.34 601.97 252.35 595.55 246.66 590.57 238.18 586.16 222.41 583.25 215.02 582.94 207.58 582.58 193.23 577.7 186.25 572.51 181.41 568.16 176.69 562.79 172.12 556.51 167.32 549.74 162.7 542.2 158.27 534.03 153.68 525.53 149.35 516.56 145.31 507.27 141.23 497.82 137.52 488.16 134.23 478.41 131.03 468.6 128.33 458.77 126.21 448.99 124.27 439.21 122.98 429.5 122.39 419.9 122.06 410.3 122.47 401.03 123.58 392.08 124.97 383.1 127.03 374.41 129.71 365.96 132.61 357.43 136.08 349.09 140.06 340.89 144.15 332.54 148.69 324.24 153.6 315.95 158.5 307.43 163.72 298.83 169.19 290.12 174.55 281.11 180.12 271.95 185.86 262.63 191.41 253.06 197.11 243.37 202.93 233.63 208.53 223.81 214.26 214.11 220.11 204.65 225.76 195.45 231.54 186.75 237.48 178.74 243.24 171.35 249.18 164.9 255.32 159.54 261.32 155.02 267.56 151.67 274.03 149.52 280.41 148.06 287.05 147.59 293.96 147.96 300.81 148.47 307.94 149.35 315.36 150.35 322.74 150.75 330.42 150.78 338.37 150.27 346.31 148.65 354.54 146.32 363.05 143.35 371.55 139.43 380.34 135.21 389.43 130.99" stroke-dasharray="5 0" transform="rotate(32.32, 400, 400)" opacity="0.80"></path><path d="M395.91 146.02C404.63 141.8 413.45 138.3 422.36 135.77 431.29 133.99 440.33 133.56 449.45 134.55 458.6 136.58 467.86 140 477.19 144.66 486.56 150.07 496.01 156.38 505.5 163.31 515.02 170.4 524.55 177.7 534.05 185 543.53 191.89 552.92 198.49 562.14 204.72 571.24 210.26 580.08 215.37 588.56 220.1 596.79 224.16 604.52 227.97 611.66 231.63 618.37 234.85 624.36 238.12 629.52 241.55 635.96 246.61 643.11 258.68 643.75 265.95 643.36 271.1 642.11 276.76 640.06 282.91 637.83 289.2 635.07 295.94 631.92 303.06 629.03 310.29 626.1 317.85 623.28 325.67 621.19 333.55 619.54 341.65 618.44 349.89 618.41 358.16 619.09 366.54 620.5 375.01 623.03 383.49 626.1 391.85 629.59 400.08 633.8 408.34 638.08 416.51 642.22 424.63 646.56 432.82 650.39 441.03 653.57 449.3 656.43 457.75 658.36 466.36 659.26 475.19 659.53 484.29 658.66 493.71 656.65 503.48 653.92 513.56 650.07 524.02 645.21 534.81 639.7 545.84 633.3 557.07 626.13 568.39 618.52 579.61 610.3 590.61 601.61 601.12 592.69 611.02 583.44 620.01 573.99 627.79 564.47 634.39 554.86 639.42 545.21 642.67 535.61 644.5 526.04 644.52 516.55 642.81 507.15 640.11 497.83 636.17 488.62 631.37 479.5 626.72 470.48 622.14 461.55 618.15 452.7 615.7 443.91 614.7 435.2 615.46 426.54 618.52 417.92 623.49 409.36 630.19 400.81 638.58 392.3 647.83 383.84 657.29 375.38 666.57 367.15 674.43 359.17 680.3 351.19 684.27 343.44 685.52 335.96 684.01 328.46 680.21 321.23 673.95 314.27 665.66 307.29 656.03 300.59 645.31 294.18 634.05 287.74 622.91 281.58 612.13 275.7 602.11 269.77 593.25 264.12 585.57 258.72 579.11 250.63 572.16 235.39 564.68 228.16 562.85 220.84 561.78 206.6 557.84 199.64 554.13 194.83 551.11 190.13 547.23 185.58 542.54 180.83 537.49 176.25 531.67 171.86 525.18 167.35 518.39 163.08 511.04 159.11 503.23 155.11 495.25 151.48 486.91 148.26 478.31 145.13 469.63 142.49 460.77 140.4 451.79 138.51 442.79 137.23 433.71 136.62 424.59 136.27 415.46 136.63 406.5 137.66 397.71 138.96 388.9 140.91 380.22 143.47 371.67 146.24 363.05 149.56 354.49 153.38 345.97 157.33 337.33 161.71 328.66 166.46 319.94 171.24 311.05 176.32 302.06 181.67 292.97 186.94 283.71 192.42 274.34 198.08 264.91 203.59 255.4 209.25 245.9 215.02 236.51 220.62 227.23 226.33 218.24 232.15 209.66 237.78 201.47 243.54 193.92 249.42 187.16 255.14 181.04 261.01 175.89 267.04 171.78 272.94 168.41 279.03 166.09 285.32 164.79 291.51 164 297.93 163.98 304.58 164.6 311.17 165.18 318.01 165.97 325.11 166.74 332.16 166.85 339.48 166.56 347.08 165.73 354.65 163.85 362.51 161.34 370.64 158.26 378.77 154.34 387.19 150.17 395.9 146.02" stroke-dasharray="3 9" transform="rotate(36.36, 400, 400)" opacity="0.49"></path><path d="M402.77 161.06C411.11 156.93 419.55 153.47 428.07 150.89 436.6 148.95 445.22 148.24 453.92 148.81 462.63 150.34 471.41 153.16 480.24 157.18 489.08 161.96 497.95 167.67 506.81 174.09 515.66 180.8 524.46 187.87 533.17 195.09 541.8 202.08 550.28 208.96 558.52 215.59 566.6 221.69 574.37 227.44 581.71 232.85 588.8 237.64 595.36 242.14 601.32 246.41 609.32 252.04 620.84 262.8 624.13 268.4 625.86 274.12 624.64 287.42 622.05 295.13 620.04 300.47 617.61 306.24 614.9 312.4 612.48 318.62 610.06 325.21 607.75 332.13 606.12 339.09 604.86 346.34 604.07 353.86 604.21 361.39 604.94 369.16 606.27 377.16 608.57 385.16 611.31 393.21 614.39 401.29 618.12 409.39 621.91 417.56 625.59 425.82 629.49 434.15 632.99 442.62 635.95 451.25 638.7 460.02 640.68 469.01 641.8 478.24 642.44 487.65 642.1 497.34 640.76 507.28 638.83 517.37 635.91 527.66 632.05 538.08 627.63 548.5 622.37 558.87 616.35 569.03 609.9 578.87 602.82 588.22 595.23 596.84 587.37 604.73 579.12 611.56 570.59 617.13 561.93 621.61 553.08 624.61 544.13 626.06 535.16 626.39 526.15 625.28 517.15 622.83 508.18 619.8 499.25 615.96 490.39 611.65 481.59 607.77 472.86 604.2 464.22 601.34 455.63 600 447.12 600 438.69 601.57 430.31 605.13 421.99 610.29 413.75 616.87 405.54 624.85 397.38 633.49 389.31 642.25 381.24 650.86 373.42 658.23 365.87 663.88 358.31 667.94 351 669.65 343.96 668.93 336.9 666.22 330.1 661.25 323.56 654.33 317 646.06 310.7 636.57 304.66 626.3 298.58 615.83 292.75 605.36 287.17 595.25 281.53 585.91 276.11 577.39 270.93 569.81 265.65 563.42 260.57 558.01 255.68 553.49 248.23 548.64 233.84 542.37 226.84 539.86 219.68 537.48 205.62 530.36 198.76 525.2 194.08 521.34 189.56 516.81 185.24 511.64 180.81 506.26 176.64 500.3 172.76 493.81 168.87 487.17 165.33 480.09 162.2 472.62 159.16 465.08 156.6 457.22 154.57 449.08 152.73 440.93 151.47 432.55 150.85 423.97 150.49 415.39 150.79 406.81 151.74 398.27 152.95 389.71 154.78 381.15 157.19 372.6 159.81 364.02 162.96 355.39 166.6 346.73 170.37 338 174.56 329.2 179.13 320.32 183.74 311.37 188.67 302.33 193.86 293.24 199 284.11 204.37 274.96 209.91 265.86 215.34 256.82 220.93 247.94 226.64 239.31 232.2 230.93 237.88 222.96 243.66 215.54 249.28 208.58 255.01 202.32 260.86 196.88 266.55 192.07 272.37 188.16 278.33 185.21 284.16 182.86 290.15 181.4 296.31 180.77 302.37 180.46 308.62 180.74 315.08 181.45 321.46 181.97 328.07 182.57 334.91 183.05 341.7 182.83 348.74 182.2 356.02 181.05 363.28 178.95 370.8 176.27 378.59 173.11 386.37 169.21 394.42 165.11 402.76 161.06" stroke-dasharray="11 7" transform="rotate(40.400000000000006, 400, 400)" opacity="0.32"></path><path d="M409.37 176.09C417.31 172.09 425.33 168.69 433.4 166.07 441.48 164.01 449.62 163.04 457.8 163.23 465.98 164.27 474.2 166.51 482.41 169.88 490.61 173.99 498.8 179.04 506.91 184.85 514.99 191.05 522.97 197.71 530.78 204.66 538.5 211.56 546 218.49 553.21 225.33 560.25 231.79 566.94 238.03 573.18 244 579.16 249.45 584.63 254.63 589.5 259.57 595.98 266.17 604.89 278.33 607.21 284.25 608.26 290.01 606.59 302.59 604.2 309.61 602.46 314.38 600.4 319.53 598.12 325.04 596.17 330.55 594.22 336.44 592.4 342.69 591.18 348.93 590.27 355.53 589.75 362.46 590.03 369.39 590.79 376.65 592.04 384.23 594.11 391.82 596.55 399.55 599.25 407.43 602.53 415.33 605.85 423.4 609.09 431.63 612.56 439.91 615.71 448.39 618.41 457.06 621 465.81 622.96 474.77 624.2 483.93 625.08 493.15 625.13 502.55 624.34 512.06 623.07 521.57 620.93 531.09 617.96 540.53 614.51 549.79 610.27 558.78 605.32 567.34 599.97 575.45 594.01 582.89 587.51 589.48 580.74 595.32 573.53 600.09 565.99 603.66 558.29 606.3 550.33 607.67 542.21 607.74 534.01 607.03 525.7 605.23 517.34 602.47 508.98 599.49 500.59 596.04 492.23 592.44 483.9 589.45 475.6 586.92 467.36 585.16 459.16 584.83 451.02 585.72 442.96 587.96 434.93 591.9 426.97 597.16 419.1 603.56 411.24 611.09 403.46 619.13 395.77 627.21 388.09 635.17 380.66 642.04 373.5 647.44 366.32 651.53 359.4 653.59 352.74 653.56 346.05 651.8 339.61 648.01 333.42 642.41 327.2 635.5 321.21 627.31 315.46 618.19 309.66 608.64 304.08 598.79 298.73 588.99 293.29 579.59 288.06 570.67 283.02 562.4 277.88 555.01 272.9 548.41 268.09 542.58 263.15 537.69 258.34 533.46 253.66 529.76 246.46 525.43 232.36 518.22 225.46 514.6 218.42 510.85 204.82 501.1 198.38 494.9 194.07 490.48 190.01 485.52 186.25 480.05 182.49 474.49 179.07 468.44 176.05 461.95 173.13 455.41 170.67 448.46 168.71 441.15 166.93 433.82 165.71 426.16 165.08 418.18 164.71 410.2 164.96 402.11 165.82 393.93 166.93 385.76 168.62 377.49 170.87 369.15 173.32 360.79 176.29 352.35 179.72 343.84 183.29 335.3 187.27 326.7 191.62 318.04 196.03 309.38 200.76 300.69 205.75 292.03 210.73 283.43 215.93 274.91 221.33 266.55 226.64 258.37 232.12 250.46 237.73 242.91 243.22 235.7 248.83 228.98 254.55 222.86 260.13 217.22 265.82 212.3 271.61 208.16 277.27 204.56 283.04 201.78 288.93 199.82 294.71 198.3 300.62 197.5 306.67 197.35 312.63 197.34 318.76 197.73 325.05 198.39 331.28 198.75 337.7 199.08 344.31 199.22 350.88 198.66 357.66 197.69 364.66 196.24 371.64 193.92 378.85 191.12 386.3 187.9 393.73 184.04 401.42 180.04 409.36 176.1" stroke-dasharray="10 4" transform="rotate(44.44, 400, 400)" opacity="0.19"></path><path d="M415.1 191.13C422.61 187.26 430.16 183.94 437.73 181.32 445.3 179.16 452.89 177.98 460.48 177.82 468.06 178.41 475.63 180.09 483.14 182.81 490.64 186.24 498.06 190.58 505.36 195.7 512.6 201.27 519.69 207.38 526.57 213.89 533.35 220.49 539.87 227.26 546.06 234.07 552.09 240.68 557.74 247.18 562.94 253.51 567.92 259.47 572.39 265.21 576.31 270.74 581.47 278.33 588.27 292.23 589.85 298.81 590.46 305.05 588.66 317.93 586.58 324.79 584.29 331.79 579.34 347.27 577.2 355.8 576.35 361.59 575.75 367.72 575.46 374.21 575.86 380.68 576.65 387.51 577.81 394.7 579.67 401.89 581.82 409.29 584.17 416.86 587.02 424.45 589.91 432.23 592.72 440.19 595.77 448.18 598.55 456.35 600.98 464.68 603.36 473.02 605.23 481.51 606.5 490.1 607.53 498.66 607.86 507.26 607.48 515.82 606.73 524.26 605.23 532.55 603 540.58 600.38 548.31 597.05 555.62 593.07 562.37 588.74 568.61 583.81 574.12 578.37 578.76 572.65 582.72 566.5 585.7 559.97 587.61 553.26 588.82 546.26 588.99 539.04 588.15 531.71 586.85 524.22 584.78 516.62 582.09 508.98 579.46 501.27 576.63 493.53 573.88 485.79 571.84 478.05 570.35 470.33 569.62 462.63 570.19 454.96 571.83 447.34 574.62 439.75 578.83 432.21 584.09 424.75 590.25 417.3 597.32 409.92 604.75 402.63 612.18 395.34 619.49 388.29 625.86 381.49 630.99 374.68 635.03 368.11 637.37 361.78 637.9 355.42 636.98 349.29 634.25 343.39 629.88 337.45 624.29 331.72 617.41 326.2 609.54 320.62 601.09 315.24 592.13 310.05 582.96 304.78 573.89 299.67 565.01 294.74 556.48 289.7 548.54 284.8 541.15 280.04 534.35 275.16 528.31 270.39 522.85 265.74 517.92 260.94 513.65 256.25 509.76 251.66 506.14 244.61 501.46 230.85 492.47 224.2 487.68 217.55 482.7 205.17 470.84 199.59 463.82 195.99 458.96 192.72 453.66 189.83 447.92 187.04 442.15 184.69 435.96 182.81 429.38 181.11 422.78 179.93 415.81 179.31 408.47 178.93 401.13 179.13 393.61 179.9 385.95 180.91 378.29 182.46 370.5 184.53 362.61 186.81 354.72 189.56 346.74 192.76 338.69 196.11 330.67 199.85 322.61 203.95 314.54 208.13 306.54 212.62 298.58 217.38 290.72 222.15 283 227.15 275.46 232.34 268.17 237.5 261.11 242.81 254.41 248.27 248.15 253.65 242.23 259.15 236.84 264.76 232.07 270.26 227.73 275.87 224.05 281.58 221.09 287.17 218.55 292.88 216.7 298.68 215.52 304.39 214.62 310.21 214.27 316.16 214.38 322.02 214.49 328.02 214.84 334.16 215.32 340.23 215.43 346.47 215.43 352.87 215.2 359.23 214.29 365.77 212.99 372.49 211.26 379.19 208.77 386.09 205.86 393.19 202.62 400.28 198.83 407.58 194.94 415.09 191.14" stroke-dasharray="6 3" transform="rotate(48.48, 400, 400)" opacity="0.46"></path><path d="M419.42 206.17C426.47 202.46 433.51 199.24 440.52 196.64 447.54 194.42 454.54 193.05 461.48 192.59 468.41 192.76 475.28 193.92 482.04 196.02 488.79 198.77 495.4 202.38 501.86 206.76 508.25 211.62 514.45 217.06 520.4 222.98 526.26 229.09 531.82 235.48 537.06 242.04 542.14 248.53 546.84 255.05 551.12 261.51 555.2 267.73 558.82 273.83 561.93 279.78 566 288.16 571.16 303.74 572.24 311.09 572.58 318.04 570.94 331.86 569.22 338.94 567.44 346.02 563.71 361.2 562.17 369.41 561.64 374.94 561.31 380.77 561.22 386.92 561.71 393.05 562.5 399.52 563.58 406.31 565.25 413.11 567.12 420.08 569.15 427.22 571.61 434.36 574.08 441.66 576.5 449.1 579.13 456.53 581.56 464.08 583.69 471.71 585.83 479.31 587.55 486.95 588.79 494.56 589.86 502.09 590.37 509.52 590.28 516.77 589.92 523.84 588.93 530.62 587.3 537.02 584.09 545.87 574.25 559.95 567.78 564.78 560.49 567.97 543.64 569.4 534.33 567.83 527.93 566.35 521.32 564.37 514.55 562.07 507.72 560 500.77 557.96 493.74 556.12 486.7 555.04 479.61 554.53 472.5 554.73 465.39 556.08 458.27 558.33 451.19 561.52 444.11 565.88 437.06 571.07 430.06 576.94 423.07 583.52 416.12 590.36 409.24 597.14 402.36 603.82 395.7 609.7 389.26 614.52 382.81 618.47 376.57 620.98 370.55 621.98 364.5 621.75 358.64 619.96 352.99 616.71 347.3 612.36 341.79 606.78 336.46 600.19 331.08 592.95 325.86 585.07 320.8 576.79 315.66 568.39 310.67 559.92 305.82 551.57 300.87 543.52 296.05 535.79 291.34 528.46 286.52 521.66 281.8 515.31 277.19 509.41 272.46 504.06 267.82 499.08 263.29 494.43 258.63 490.22 254.07 486.21 249.64 482.31 242.89 476.9 230 465.97 223.96 460.13 218.11 454.11 207.82 440.51 203.53 432.82 200.9 427.57 198.68 421.95 196.89 415.97 195.28 409.98 194.16 403.63 193.55 396.93 193.15 390.23 193.31 383.35 193.99 376.32 194.88 369.31 196.29 362.17 198.18 354.95 200.26 347.74 202.79 340.47 205.75 333.18 208.84 325.94 212.32 318.71 216.14 311.55 220.06 304.48 224.27 297.53 228.75 290.76 233.27 284.16 238.02 277.8 242.97 271.76 247.9 265.97 253.01 260.57 258.26 255.64 263.46 251.02 268.79 246.92 274.24 243.39 279.61 240.21 285.09 237.61 290.66 235.62 298.94 233.34 315.87 231.55 324.52 231.68 330.26 231.74 336.11 231.92 342.08 232.13 347.99 231.92 354.04 231.55 360.21 230.93 366.35 229.68 372.63 228.09 379.06 226.12 385.47 223.48 392.04 220.51 398.77 217.28 405.49 213.59 412.37 209.83 419.41 206.17" stroke-dasharray="2 5" transform="rotate(52.52, 400, 400)" opacity="0.39"></path><path d="M421.94 221.21C428.48 217.67 434.97 214.57 441.4 212.02 447.83 209.77 454.19 208.26 460.45 207.54 466.71 207.35 472.85 208.03 478.86 209.54 484.83 211.63 490.65 214.53 496.27 218.15 507.33 226.74 517.44 237.47 526.29 249.51 534.64 261.8 541.48 274.38 546.57 286.78 551.02 298.39 553.68 309.6 554.54 320.43 555.06 330.42 554.18 340.37 552.18 350.49 550.91 357.88 548.31 373.22 547.29 381.29 547.04 386.71 546.94 392.34 547.01 398.22 547.57 404.08 548.35 410.19 549.34 416.55 550.83 422.92 552.45 429.4 554.18 435.97 556.28 442.54 558.38 449.18 560.41 455.87 562.66 462.55 564.73 469.24 566.56 475.91 568.43 482.52 569.97 489.05 571.11 495.46 573.09 507.9 573.07 519.36 570.98 529.22 567.97 537.89 562.83 544.3 555.81 547.99 547.97 550.23 538.54 549.89 527.91 547.33 516.83 544.79 504.89 541.72 492.42 539.27 486.13 539.1 479.75 539.47 473.32 540.48 466.87 542.45 460.38 545.18 453.88 548.65 447.38 553.05 440.88 558.09 434.39 563.62 427.9 569.71 421.43 575.95 414.99 582.1 408.56 588.17 402.3 593.55 396.23 598.04 387.2 603.16 369.98 605.66 361.77 602.9 356.32 599.69 351.02 595.34 345.87 590.02 335.43 577.5 325.49 562.73 316.05 547.12 306.3 531.83 296.91 517.26 287.94 503.91 278.58 492.15 269.58 481.57 261.04 471.87 252.21 463.33 243.93 454.95 236.42 446.32 230.88 440.01 221.19 426.49 217.17 419.17 213.67 411.59 208.9 395.03 207.78 386.05 207.38 379.96 207.49 373.75 208.08 367.45 208.86 361.15 210.12 354.78 211.82 348.38 213.7 342 216 335.62 218.69 329.27 221.52 322.99 224.71 316.78 228.23 310.7 235.53 298.88 243.96 287.87 253.24 278.13 262.55 269.26 272.54 262.06 283.01 256.84 293.3 252.55 304.02 250.11 315.06 249.38 325.88 248.62 337.08 248.58 348.62 248.68 354.33 248.11 360.14 247.36 366.05 246.38 371.93 244.82 377.93 242.96 384.03 240.79 390.12 238.06 396.33 235.06 402.65 231.87 408.96 228.3 415.39 224.7 421.93 221.21" stroke-dasharray="0 11" transform="rotate(56.56, 400, 400)" opacity="0.31"></path><path d="M422.42 236.24C434.42 229.62 446.08 224.93 457.25 222.69 468.37 222.17 478.9 224.68 488.61 229.96 498.12 236.98 506.65 246.15 513.96 256.82 520.89 268.08 526.45 279.99 530.49 292.06 534.1 303.78 536.23 315.34 536.9 326.61 537.45 337.29 536.91 347.84 535.5 358.35 534.68 368.47 533.6 378.86 532.56 389.61 532.89 400.24 533.72 411.44 535.11 423.22 538.11 435.01 541.33 446.85 544.47 458.52 548.39 470.08 551.51 481.24 553.53 491.61 555.4 501.52 555.65 510.19 554.19 517.17 552.08 523.25 548.15 527.29 542.56 529.12 536.31 530.16 528.59 529.36 519.68 527.19 510.37 525.62 500.12 524.07 489.23 523.4 478.18 525.4 466.67 529.53 454.94 535.97 443.18 545.31 431.27 556.09 419.35 567.06 407.43 577.78 396.05 585.52 385.24 589.4 374.37 590.16 363.99 586.48 354.12 578.93 344.1 568.89 334.47 556.4 325.27 542.57 315.81 528.43 306.68 514.31 297.93 500.79 288.89 488.25 280.2 476.57 271.99 465.72 263.59 455.82 255.74 446.32 248.67 436.96 241.65 428.06 235.59 418.83 230.74 409.13 226.31 399.51 223.32 389.2 222.01 378.18 221.4 367.16 222.61 355.99 225.47 344.91 228.96 333.96 233.96 323.31 240.24 313.3 246.9 303.68 254.64 295.02 263.21 287.66 271.9 280.94 281.26 275.73 291.11 272.18 300.89 269.12 311.1 267.46 321.61 266.97 331.99 266.08 342.7 265.53 353.67 264.87 364.54 262.57 375.74 259.41 387.21 255.27 398.64 249.28 410.41 242.71 422.41 236.25" stroke-dasharray="4 6" transform="rotate(60.599999999999994, 400, 400)" opacity="0.71"></path><path d="M420.81 251.28C431.68 245.06 442.09 240.51 451.93 238.04 461.71 236.92 470.82 238.39 479.1 242.31 487.2 247.76 494.35 255.27 500.39 264.34 506.15 274.19 510.71 284.95 513.98 296.16 517.01 307.37 518.83 318.67 519.49 329.84 520.18 340.71 520.02 351.45 519.19 362.04 518.94 372.39 518.47 382.77 517.98 393.21 518.62 403.57 519.58 414.14 520.88 424.88 523.48 435.62 526.15 446.02 528.68 455.9 531.9 465.67 534.45 474.71 536.11 482.74 537.94 493.58 534.11 507 528.2 509.14 523.3 509.77 517.07 509.22 509.71 507.94 502.01 507.6 493.37 507.6 484.02 508.55 474.51 511.81 464.44 516.77 454.01 523.46 443.55 532.36 432.81 542.2 421.91 552.03 411.01 561.64 400.47 568.79 390.35 572.8 380.19 574.4 370.38 572.3 360.97 566.86 351.44 559.19 342.22 549.09 333.35 537.39 324.3 524.98 315.53 512.05 307.12 499.19 298.52 486.74 290.27 474.78 282.49 463.44 274.62 452.75 267.3 442.51 260.73 432.63 254.26 423.14 248.7 413.67 244.27 404.13 240.21 394.69 237.47 384.98 236.24 375.02 235.63 365.05 236.64 355.3 239.13 345.93 242.18 336.66 246.61 327.93 252.21 320 258.18 312.35 265.17 305.7 272.96 300.27 280.91 295.22 289.53 291.43 298.64 288.94 307.76 286.57 317.3 285.18 327.13 284.53 336.91 283.25 346.98 282.04 357.25 280.59 367.47 277.65 377.93 273.97 388.54 269.56 399.15 263.64 409.94 257.36 420.81 251.28" stroke-dasharray="6 4" transform="rotate(64.64, 400, 400)" opacity="0.29"></path><path d="M417.27 266.32C426.97 260.55 436.15 256.2 444.7 253.59 453.21 252.01 461.03 252.6 468.04 255.27 474.92 259.23 480.92 265.07 485.92 272.43 490.76 280.63 494.57 289.87 497.33 299.76 499.98 309.9 501.66 320.36 502.44 330.86 503.34 341.29 503.58 351.68 503.29 361.91 503.54 372.02 503.57 382.05 503.54 391.93 504.41 401.77 505.45 411.55 506.65 421.17 508.87 430.78 511.05 439.76 513.03 447.97 515.61 456.1 517.62 463.33 518.89 469.48 519.01 482.59 506.65 490.02 498.14 490.01 491.87 490.96 484.69 492.4 476.78 494.72 468.73 498.92 460.07 504.4 450.95 511.1 441.79 519.41 432.25 528.29 422.43 536.99 412.61 545.52 402.99 552.03 393.64 556.03 384.27 558.22 375.13 557.4 366.28 553.77 357.36 548.29 348.66 540.53 340.26 531.11 331.74 520.79 323.48 509.6 315.55 498.08 307.51 486.55 299.81 475.12 292.59 464.05 285.34 453.31 278.63 442.94 272.63 432.97 266.77 423.27 261.75 413.79 257.75 404.53 254.1 395.36 251.61 386.24 250.47 377.24 249.86 368.24 250.68 359.76 252.81 351.89 255.43 344.08 259.27 336.98 264.18 330.73 269.43 324.64 275.62 319.5 282.56 315.41 289.69 311.46 297.46 308.51 305.72 306.5 314.03 304.34 322.76 302.82 331.77 301.71 340.78 299.86 350.06 297.95 359.49 295.75 368.91 292.26 378.5 288.21 388.16 283.64 397.82 277.9 407.56 271.97 417.27 266.32" stroke-dasharray="3 2" transform="rotate(68.68, 400, 400)" opacity="0.87"></path><path d="M412.12 281.35C420.64 276.07 428.62 271.99 435.99 269.34 443.31 267.43 449.98 267.3 455.9 268.9 461.74 271.52 466.79 275.78 471.01 281.42 475.13 287.86 478.41 295.36 480.85 303.62 483.27 312.26 484.93 321.37 485.89 330.69 487.02 340.11 487.64 349.59 487.82 358.97 488.46 368.35 488.91 377.61 489.23 386.62 490.26 395.64 491.33 404.44 492.42 412.88 494.29 421.33 496.03 428.99 497.53 435.81 501.68 452.66 500.79 467.96 497.1 469.96 492.12 472.01 477.23 477.21 467.68 481.88 460.97 486.67 453.63 492.37 445.78 498.85 437.9 506.46 429.56 514.35 420.86 521.95 412.16 529.42 403.53 535.26 395.05 539.1 386.56 541.65 378.21 541.81 370.05 539.68 361.85 536.09 353.83 530.51 346.04 523.34 338.2 515.26 330.57 506.14 323.27 496.43 315.92 486.44 308.9 476.25 302.33 466.14 295.79 456.11 289.77 446.28 284.4 436.78 279.19 427.41 274.73 418.33 271.19 409.58 267.96 400.89 265.75 392.47 264.71 384.38 264.1 376.29 264.74 368.89 266.53 362.23 268.72 355.58 271.98 349.71 276.18 344.66 280.7 339.64 286.06 335.46 292.1 332.13 298.34 328.74 305.19 326.1 312.49 324.11 319.88 321.79 327.68 319.86 335.74 318.13 343.83 315.67 352.17 313.09 360.63 310.26 369.11 306.38 377.71 302.11 386.33 297.52 394.95 292.05 403.59 286.55 412.12 281.35" stroke-dasharray="5 9" transform="rotate(72.72, 400, 400)" opacity="0.54"></path><path d="M405.84 296.39C413.19 291.64 420.03 287.88 426.29 285.28 435.36 282.86 450.3 286.14 456.05 291.61 459.63 296.32 462.54 302.03 464.79 308.52 467.07 315.41 468.77 322.85 469.93 330.62 471.27 338.57 472.2 346.7 472.77 354.82 473.72 363 474.46 371.11 475.04 378.99 476.16 386.9 477.22 394.56 478.19 401.83 480.42 412.35 484.19 429.47 485.26 435.99 484.94 445.75 476.9 456 471.34 459.34 467.27 462.44 462.47 465.94 457.01 469.95 451.49 475 445.36 480.63 438.72 486.69 432.05 493.5 424.9 500.38 417.36 506.91 409.81 513.35 402.23 518.48 394.71 522.06 387.19 524.75 379.73 525.59 372.4 524.63 365.06 522.6 357.84 518.9 350.82 513.8 343.78 507.9 336.94 500.95 330.39 493.28 323.85 485.22 317.61 476.75 311.8 468.14 306.04 459.43 300.76 450.74 296.07 442.24 291.54 433.76 287.67 425.5 284.61 417.57 281.8 409.67 279.87 402.07 278.94 394.88 278.36 387.69 278.84 381.22 280.28 375.47 283.41 367.19 294.31 354.12 301.69 349.2 307.01 345.98 312.87 343.26 319.14 340.97 325.53 338.31 332.29 335.85 339.3 333.49 346.36 330.49 353.64 327.36 361.04 324.07 368.46 319.98 375.98 315.66 383.48 311.19 391 306.1 398.49 301.08 405.84 296.39" stroke-dasharray="0 5" transform="rotate(76.76, 400, 400)" opacity="0.98"></path><path d="M399.02 311.43C408.1 305.55 423.87 298.78 430.48 298.32 438.88 300.03 445.21 306.01 449.4 315.12 453.86 325.66 456.71 338.17 458.15 351.27 459.3 357.95 460.23 364.65 460.98 371.22 462.11 377.82 463.11 384.24 463.95 390.36 465.72 399.25 468.34 413.95 468.91 419.81 469.79 427.41 468.39 433.23 464.6 437.92 460.64 444.21 454.07 451.02 445.21 458.85 440.71 463.83 435.67 469.12 430.16 474.59 424.62 480.52 418.63 486.38 412.24 491.88 405.84 497.3 399.36 501.7 392.88 504.92 386.41 507.56 379.95 508.82 373.57 508.71 360.84 506.23 348.44 498.74 337.06 487.87 325.81 475.51 315.75 461.45 307.69 447.26 303.85 440.11 300.59 433.05 298.01 426.21 295.63 419.37 293.99 412.76 293.17 406.49 292.79 397.38 296.57 382.17 300.49 375.98 306.8 367.84 315.54 361.44 325.88 356.37 336.63 349.93 348.64 343.62 361.11 337.15 367.4 333.05 373.77 328.86 380.12 324.66 386.49 320.04 392.82 315.57 399.02 311.43" stroke-dasharray="11 1" transform="rotate(80.80000000000001, 400, 400)" opacity="0.71"></path><path d="M392.29 326.47C402.46 319.35 411.2 315.16 418.29 314.11 425.39 314.32 430.94 317.83 434.88 323.95 439.11 331.1 442.11 340.15 443.96 350.08 446.62 360.34 448.59 370.92 449.72 380.98 451.98 391.04 453.07 399.57 452.91 406.57 453.23 413.86 451.78 420.22 448.51 426.04 445.22 433.07 439.91 440.52 432.76 448.45 425.51 458.04 416.48 467.92 405.98 476.84 395.47 485.57 384.58 490.73 373.9 492 363.28 491.43 352.93 487.01 343.46 479.7 334.15 471.21 325.87 460.88 319.28 449.88 313.15 438.64 308.97 427.31 307.4 416.69 306.61 406.08 308.61 397.11 312.87 389.75 317.75 382.08 324.64 375.48 332.89 369.7 341.49 362.89 351.19 356.15 361.32 349.48 371.59 341.41 382.12 333.43 392.29 326.47" stroke-dasharray="8 5" transform="rotate(84.84, 400, 400)" opacity="0.29"></path><path d="M386.28 341.5C394.29 335.64 401.3 331.98 407.12 330.59 415.37 330.72 426.7 342.61 430.16 352.61 432.69 359.84 434.52 367.72 435.49 375.7 437.16 383.68 437.74 391 437.28 397.58 437.16 404.38 435.68 410.87 432.87 417.11 430.11 424.1 425.84 431.33 420.19 438.61 414.5 446.76 407.43 454.78 399.16 461.8 390.89 468.7 382.28 473.03 373.82 474.63 365.41 475.22 357.23 473.03 349.77 468.59 342.47 463.38 336.01 456.45 330.91 448.58 326.13 440.49 322.88 431.87 321.63 423.3 320.91 414.72 322.31 406.99 325.45 400.16 329.02 393.12 334.16 386.61 340.4 380.6 346.89 373.95 354.3 367.39 362.13 361.1 370.05 354.02 378.26 347.27 386.28 341.5" stroke-dasharray="1 9" transform="rotate(88.88, 400, 400)" opacity="0.62"></path><path d="M381.54 356.54C393.42 347.62 402.88 345.37 408.99 349.12 415.68 354 420.11 363.68 421.26 375.66 423.92 387.63 422.65 399.71 417.9 410.85 413.42 423.43 404.63 436.55 392.42 446.76 380.22 456.72 367.16 459.08 356.23 454.67 345.74 448.72 338.01 437.76 335.87 424.87 334.94 411.98 339.99 399.64 348.57 388.95 357.75 376.99 369.66 365.24 381.54 356.54" stroke-dasharray="8 11" transform="rotate(92.92, 400, 400)" opacity="0.93"></path><path d="M378.52 371.58C389.72 364.42 404.41 370.05 407.03 380.87 408.59 388.91 407.32 398.03 403.78 406.72 400.42 415.87 394.4 425 386.39 431.73 378.38 438.34 369.97 440.44 363.04 438.39 356.35 435.8 351.45 429.63 350.1 421.08 349.31 412.54 352.29 403.31 357.58 394.91 363.15 386.09 370.66 377.62 378.52 371.58" stroke-dasharray="2 9" transform="rotate(96.96, 400, 400)" opacity="0.68"></path></g></svg>